<svg xmlns="http://www.w3.org/2000/svg" width="32" height="32" viewBox="0 0 32 32">
  <defs>
    <mask id="complexSolidReinforced">
      <path
        d="M 5 29 L 5 21 L 11 21 L 11 29 Z M 17 29 C 17 22 21 17 29 17 L 29 29 Z M 3 29 L 5 29 M 11 29 L 17 29 M 29 17 L 29 3 M 29 7 L 21 7"
        fill="white"
        stroke="white"
        stroke-width="4"
        stroke-linecap="round"
      />
      <path
        d="M 5 29 L 5 29 L 5 21 L 11 21 L 11 29 M 17 29 C 17 22 21 17 29 17 M 3 29 L 29 29 M 29 29 L 29 3 M 29 7 L 21 7"
        fill="none"
        stroke="black"
        stroke-width="1"
        stroke-linecap="round"
        stroke-dasharray="6.8 3.4"
      />

    </mask>
  </defs>
  <path
    d="M 5 29 L 5 21 L 11 21 L 11 29 Z M 17 29 C 17 22 21 17 29 17 L 29 29 Z M 3 29 L 5 29 M 11 29 L 17 29 M 29 17 L 29 3 M 29 7 L 21 7"
    fill="currentColor"
    stroke="currentColor"
    stroke-width="4"
    stroke-linecap="round"
    stroke-linejoin="round"
    mask="url(#complexSolidReinforced)"
  />
</svg>