<svg xmlns="http://www.w3.org/2000/svg" width="32" height="32" viewBox="0 0 24 24"><path fill="none" stroke="currentColor" 
stroke-linecap="square" stroke-linejoin="square" stroke-width="1" 
d="M21.915 8.4938v4.2h-1.05a1.05 1.05 90 01-2.1 0h-1.05a1.05 1.05 90 01-2.1.2625l-1.05.2625a1.05 1.05 90 01-2.1.6563l-1.05.3938a1.05 1.05 90 01-2.1.6563l-1.05.2625a1.05 1.05 90 01-2.1.2625H5.115a1.05 1.05 90 01-2.1 0H1.965m0 0V11.25h1.05a1.05 1.05 90 012.1 0h1.05a1.05 1.05 90 012.1-.2625l1.05-.2625a1.05 1.05 90 012.1-.6563l1.05-.3937a1.05 1.05 90 012.1-.6563l1.05-.2625a1.05 1.05 90 012.1-.2625h1.05a1.05 1.05 90 012.1 0h1.05"/></svg>