<svg xmlns="http://www.w3.org/2000/svg" width="32" height="32" viewBox="0 0 24 24">
	<g fill="currentColor">
		<path d="M1.65 2.89Q3.76-1.98 5.09 3.2l-1.8 9.95q-1.06 2.44-1.68-.14l.42.04q-.04.42.38.46L3.47 1.36Q2.6 1.7 2.07 2.92L2.02 13.04l-.42.06Zm3.44.31Q8.02-1.23 8.43 4.1L4.92 13.59q-1.47 2.22-1.63-.44l.41.11q-.11.41.3.51L7.14 2q-.92.19-1.65 1.3L3.7 13.26l-.41-.11Zm3.34.9q3.66-3.86 3.13 1.46l-5.1 8.75q-1.83 1.92-1.54-.73l.38.18q-.17.4.21.58L10.65 3.3q-.94.02-1.85.99L5.3 13.76l-.38-.18Zm3.13 1.46q4.26-3.17 2.82 1.98L7.85 15.26q-2.15 1.6-1.39-.95l.34.24q-.24.34.1.58l6.98-9.98q-.93-.14-1.99.66L6.8 14.55l-.34-.24Zm2.82 1.98q4.75-2.38 2.44 2.45L9.03 16.47q-2.37 1.16-1.18-1.21l.3.32q-.3.28 0 .57l8.59-8.59q-.89-.3-2.08.3L8.15 15.58l-.3-.32Zm2.44 2.45q5.1-1.51 1.98 2.83l-8.8 5.04q-2.55.75-.97-1.38l.24.33q-.34.25-.1.59l9.98-6.98q-.82-.45-2.1-.07l-7.78 6.46-.24-.34Zm1.98 2.83q5.28-.61 1.46 3.14l-9.55 3.43q-2.64.3-.71-1.54l.18.38q-.38.18-.2.56l11.04-5.14q-.74-.58-2.06-.43l-8.78 5.02-.18-.38Zm1.46 3.14q5.3.32.89 3.34L11.06 21.05q-2.57-.2-.35-1.66l.11.41q-.41.11-.3.51l11.77-3.15q-.62-.7-1.95-.78L10.82 19.8l-.11-.41Zm.89 3.34q5.14 1.24.45 3.4H11.2q-2.58-.62-.14-1.67l.04.42q-.42.04-.38.46l12.22-1.06q-.49-.8-1.78-1.11L11.1 21.47l-.04-.42ZM1.6 13.1q0 .8-.8 1.6.03-6.82 0-13.6.8.8.86 1.78ZM11.2 22.7q-.8 0-1.6.8H23.2q-.8-.8-1.6-.8Z" />
	</g>
</svg>