<svg xmlns="http://www.w3.org/2000/svg" width="32" height="32" viewBox="0 0 24 24">
<g fill="currentColor">
	<path d="M2.8 3.39Q2.8 2 2 1.2V12q.8-.4.8-1.7ZM20.74 20.66q.06 1.34.86 2.14V12q-.8.4-.86 1.75M7.5 12.22l4.44-5.29q1.74-.41 2.51.5L7.09 13.6q-.26-.31.41-1.38l-.26-.31q-2.3 3.49 1.54 1.84l5.98-3.45q2.75-5.44-3.08-3.68l-4.44 5.29m-1.73-1L7.87 4.42q1.49-.98 2.53-.38L5.6 12.35q-.35-.2-.09-1.44l-.34-.2q-.97 4.07 2.07 1.2l4.44-5.29Q12.4.57 7.52 4.22L5.16 10.71m-1.97-.35V3.46Q4.26 2.02 5.44 2.23L3.77 11.68q-.4-.07-.58-1.32l-.39-.07q.48 4.14 2.36.42l2.36-6.49Q6.13-1.71 2.8 3.39V10.3m13.24 1.53-4.44 5.29q-1.74.42-2.51-.5l7.36-6.17q.26.31-.4 1.38l.26.31q2.29-3.49-1.54-1.84L8.78 13.75q-2.75 5.44 3.08 3.68l4.44-5.29m1.73 1-2.36 6.49q-1.49.98-2.53.38l4.8-8.31q.35.2.09 1.44l.35.2q.96-4.06-2.08-1.2l-4.44 5.29q-.72 6.05 4.16 2.4l2.36-6.49m1.97.35V20.6q-1.07 1.44-2.25 1.23l1.66-9.46q.4.07.58 1.32l.39.07q-.49-4.14-2.36-.42l-2.35 6.48q1.39 5.94 4.73.84V13.75" fill="#000000"/>
</g>
</svg>