<svg xmlns="http://www.w3.org/2000/svg" width="32" height="32" viewBox="0 0 32 32">
  <defs>
    <mask id="squareSolidHollowReinforced">
      <path
        d="M 3 29 L 11 29 L 11 16 L 3 16 Z M 12 29 L 20 29 L 20 16 L 12 16 Z M 21 29 L 29 29 L 29 16 L 21 16 Z"
        fill="white"
        stroke="white"
        stroke-width="4"
        stroke-linecap="round"
      />
      <path
        d="M 5 29 L 5 29 L 5 21 L 11 21 L 11 29 M 17 29 C 17 22 21 17 29 17 M 3 29 L 29 29 M 29 29 L 29 3 M 29 7 L 21 7"
        fill="none"
        stroke="black"
        stroke-width="1"
        stroke-linecap="round"
        stroke-dasharray="6.8 3.4"
      />

    </mask>
  </defs>
  <g
    mask="url(#squareSolidHollowReinforced)"
  >
  <path
  d="M 21 29 L 29 29 L 29 16 L 21 16 Z"
  fill="currentColor"
  stroke="currentColor"
  stroke-width="4"
  stroke-linecap="round"
  stroke-linejoin="round"
/>
<path
  d="M 3 29 L 11 29 L 11 16 L 3 16 Z M 12 29 L 20 29 L 20 16 L 12 16 Z"
  fill="none"
  stroke="currentColor"
  stroke-width="4"
  stroke-linecap="round"
  stroke-linejoin="round"
/>
  </g>
</svg>