<svg xmlns="http://www.w3.org/2000/svg" viewBox="0 0 24 24">
	<path d="M20.7 2.1q1.5-.3 1.5-.6H9q0 .3 1.5.6ZM13.58 21.88Q15 22.2 15 22.5H1.8q0-.3 1.5-.6Zm-0-.01L3.3 21.9q-5.78-2.34.35-3.58l10.08 1.77q3.51 1.2-.15 1.78l.02-.3q.92-.22.95-.52L1.7 19.93q-.05.6 1.66 1.65l10.24-.01Zm.16-1.78L3.65 18.32q-5.33-3.29.92-3.45l9.62 3.5q3.25 1.78-.46 1.72l.08-.29q.95-.06 1.03-.35L2.37 16.11q-.15.59 1.35 1.92L13.81 19.8Zm.45-1.72-9.62-3.49Q-.1 10.71 6.08 11.64l8.86 5.11q2.89 2.32-.75 1.62l.13-.27q.94.1 1.07-.17L3.7 12.48q-.25.55 1 2.12l9.62 3.49Zm.76-1.62-8.87-5.11Q2.19 6.72 8.14 8.69l7.84 6.59q2.44 2.8-1.03 1.47l.17-.25q.91.28 1.08.03L5.64 9.13q-.35.49.61 2.26l8.87 5.11ZM10.5 2.1H20.7q5.9 2.3-.22 3.54L10.39 3.87Q6.88 2.68 10.5 2.1l.01.29q-.92.22-.95.52L22.42 4.03q.05-.6-1.66-1.65l-10.24.01Zm-.11 1.77L20.47 5.64q5.33 3.29-.92 3.45L9.93 5.59q-3.25-1.78.46-1.72l-.08.29q-.95.06-1.03.35L21.75 7.84q.15-.58-1.35-1.91L10.31 4.16ZM9.92 5.59l9.63 3.5q4.67 4.17-1.51 3.24L9.18 7.22Q6.29 4.9 9.93 5.6l-.13.27q-.94-.11-1.07.16l11.69 5.45q.25-.55-1-2.12L9.8 5.87ZM9.17 7.21l8.87 5.12q3.89 4.91-2.06 2.95L8.14 8.68Q5.7 5.87 9.17 7.2L9 7.45q-.91-.27-1.08-.02l10.56 7.4q.35-.49-.61-2.26L9 7.46Z" fill="#000000"/>
</svg>