<svg xmlns="http://www.w3.org/2000/svg" xmlns:xlink="http://www.w3.org/1999/xlink" xml:space="preserve" width="254px" height="62px" viewBox="0 0 254.05 62.03"> <path fill="#00bba7" d="M0 30.74l14.6 0 0 -16.4 0.08 0 5.47 16.4 8.61 0 5.38 -16.4 0.09 0 0 16.4 14.59 0 0 -30.74 -19.63 0 -4.61 15.89 -0.08 0 -4.74 -15.89 -19.76 0 0 30.74 0 0zm119.24 0l29.71 0 0 -10.16 -12.18 0 0 -0.09 12.48 -9.56 0 -6.24 -30.01 0 0 9.39 10.73 0 0 0.08 -10.73 8.92 0 7.66 0 0zm32.35 0l14.59 0 0 -12.96c0,-2.28 1.51,-3.32 3.92,-3.32 2.5,0 3.75,1.04 3.75,4.18l0 12.1 14.59 0 0 -16.7c0,-8.49 -6.32,-9.73 -11.67,-9.73 -5.64,0 -9.04,2.02 -11.62,5.46l-0.09 0 0 -5.08 -13.47 0 0 26.05 0 0zm-59.3 -5.68c0,5.04 2.67,6.58 9.78,6.58 5.16,0 9.38,-0.55 11.92,-1.03l1.86 -7.53c-1.25,0.3 -3.49,0.51 -4.91,0.51 -1.77,0 -3.49,-0.21 -3.49,-2.36l0 -6.29 9.86 0 0 -9.73 -10.16 0 0 -5.21 -8.44 0c-3.14,3.44 -6.98,6.89 -10.89,10.08l0 4.86 4.47 0 0 10.12 0 0zm136.54 5.68l14.59 0 0 -7.23c0,-3.45 1.64,-4.61 6.2,-4.61l4.22 0 0 -14.34c-1.03,-0.13 -2.15,-0.25 -4,-0.25 -5.43,0 -6.55,2.97 -7.62,7.79l-0.09 0 0 -7.41 -13.3 0 0 26.05 0 0zm-23.45 -16.23c0.17,-2.97 1.94,-4.09 4.74,-4.09 3.05,0 4.26,1.38 4.26,4.09l-9 0 0 0zm21.14 6.29l0 -2.29c0,-10.42 -3.57,-14.72 -18.43,-14.72 -11.36,0 -17.65,5.21 -17.65,14.47 0,10.93 7.58,13.38 17.65,13.38 4.01,0 9.74,-0.77 15.25,-2.15l3.01 -7.14c-5.6,1.16 -10.29,2.15 -13.95,2.15 -3.83,0 -6.42,-0.48 -6.42,-3.7l20.54 0 0 0zm-160.68 -6.29c0.17,-2.97 1.93,-4.09 4.73,-4.09 3.06,0 4.26,1.38 4.26,4.09l-8.99 0 0 0zm21.14 6.29l0 -2.29c0,-10.42 -3.58,-14.72 -18.43,-14.72 -11.37,0 -17.65,5.21 -17.65,14.47 0,10.93 7.57,13.38 17.65,13.38 4,0 9.73,-0.77 15.24,-2.15l3.01 -7.14c-5.59,1.16 -10.29,2.15 -13.95,2.15 -3.83,0 -6.41,-0.48 -6.41,-3.7l20.54 0 0 0z"></path> </svg>